# xmcd CD database file
#
# Track frame offsets:
#	150
#	24475
#	40125
#	62930
#	86882
#	99515
#	118155
#	136270
#	159642
#	177172
#	189315
#	201790
#
# Disc length: 3014 seconds
#
# Revision: 3
# Processed by: cddbd v1.5.1PL0 Copyright (c) Steve Scherf et al.
# Submitted via: CDex 1.51
#
DISCID=a30bc40c
DTITLE=Ian Hunter - Dirty Laundry
DYEAR=1995
DGENRE=Rock
TTITLE0=Dancing On The Moon
TTITLE1=Another Fine Mess
TTITLE2=Scars
TTITLE3=Never Trust A Blonde
TTITLE4=Psycho Girl
TTITLE5=My Revolution
TTITLE6=Good Girls
TTITLE7=Red Letter Day
TTITLE8=Invisible Strings
TTITLE9=Everyone's A Fool
TTITLE10=Junkee Love
TTITLE11=The Other Man
EXTD=YEAR: 1995
EXTT0=
EXTT1=
EXTT2=
EXTT3=
EXTT4=
EXTT5=
EXTT6=
EXTT7=
EXTT8=
EXTT9=
EXTT10=
EXTT11=
PLAYORDER=
